<svg xmlns="http://www.w3.org/2000/svg" xmlns:xlink="http://www.w3.org/1999/xlink" viewBox="0 0 2044 2116" preserveAspectRatio="xMinYMin meet"><defs><style>.cls-1{fill:url(#linear-gradient);}.cls-2{fill:url(#linear-gradient-2);}.cls-3{fill:url(#linear-gradient-3);}</style><linearGradient id="linear-gradient" x1="301.85" y1="1058.02" x2="1741.99" y2="1058.02" gradientUnits="userSpaceOnUse"><stop offset="0" stop-color="#00b9d4"/><stop offset="1" stop-color="#e518be"/></linearGradient><linearGradient id="linear-gradient-2" x1="301.84" y1="1257.56" x2="1741.99" y2="1257.56" xlink:href="#linear-gradient"/><linearGradient id="linear-gradient-3" x1="301.84" y1="858.48" x2="1742" y2="858.48" xlink:href="#linear-gradient"/></defs><title>sibyl</title><g id="Layer_9" data-name="Layer 9"><path class="cls-1" d="M1021.92,1886.54a34.67,34.67,0,0,1-17.46-4.71L319.09,1482.75a34.7,34.7,0,0,1-.14-59.89l668.27-393.35V264.21a34.7,34.7,0,0,1,51.59-30.32l685.37,381.73a34.7,34.7,0,0,1,.72,60.23l-668.27,393.35v782.65a34.7,34.7,0,0,1-34.7,34.7ZM405.23,1452.6l582,338.87V1110ZM1056.62,323.26V988.65l580.85-341.89Z"/><path class="cls-2" d="M1021.92,1886.54a34.71,34.71,0,0,1-30.06-17.37L306.48,680.62a34.7,34.7,0,0,1,47.39-47.41l1370.74,789.48a34.7,34.7,0,0,1,.14,60.06l-685.37,399.08A34.7,34.7,0,0,1,1021.92,1886.54ZM431.1,757.79l603.47,1046.53L1638,1452.93Z"/><path class="cls-3" d="M1707.32,1487.47a34.68,34.68,0,0,1-30.1-17.37l-668-1158.36L354,693.27a34.7,34.7,0,1,1-34.92-60l685.37-399.08A34.7,34.7,0,0,1,1052,246.87l685.37,1188.56a34.71,34.71,0,0,1-30,52Z"/></g></svg>
