<?xml version="1.0" standalone="no"?>
<!DOCTYPE svg PUBLIC "-//W3C//DTD SVG 20010904//EN"
 "http://www.w3.org/TR/2001/REC-SVG-20010904/DTD/svg10.dtd">
<svg version="1.0" xmlns="http://www.w3.org/2000/svg"
 width="2116.000000pt" height="2116.000000pt" viewBox="0 0 2116.000000 2116.000000"
 preserveAspectRatio="xMidYMid meet">
<metadata>
Created by potrace 1.11, written by Peter Selinger 2001-2013
</metadata>
<g transform="translate(0.000000,2116.000000) scale(0.100000,-0.100000)"
fill="#000000" stroke="none">
<path d="M10490 18855 c-30 -9 -75 -28 -100 -44 -25 -16 -130 -78 -235 -139
-356 -206 -800 -465 -830 -484 -16 -10 -37 -21 -45 -25 -8 -3 -39 -22 -69 -40
-30 -19 -63 -39 -75 -44 -12 -5 -39 -20 -61 -34 -22 -14 -87 -52 -145 -86 -58
-33 -121 -69 -140 -81 -19 -11 -201 -117 -405 -236 -203 -118 -435 -253 -515
-300 -80 -47 -161 -94 -180 -105 -19 -10 -87 -50 -150 -87 -63 -37 -131 -77
-150 -87 -19 -11 -100 -59 -180 -105 -80 -47 -161 -95 -180 -105 -19 -11 -156
-91 -305 -178 -148 -87 -290 -169 -315 -183 -25 -14 -92 -53 -150 -87 -105
-61 -268 -157 -728 -424 -133 -78 -263 -153 -290 -168 -26 -14 -54 -32 -63
-39 -8 -8 -18 -14 -21 -14 -3 0 -79 -43 -168 -95 -89 -52 -164 -95 -165 -95
-2 0 -40 -22 -85 -50 -45 -27 -83 -50 -85 -50 -3 0 -37 -20 -77 -44 -82 -50
-822 -481 -968 -563 -107 -61 -138 -88 -180 -153 -51 -81 -67 -201 -37 -288 8
-21 83 -158 167 -303 84 -145 161 -277 170 -294 9 -16 85 -147 167 -290 82
-143 202 -350 265 -460 64 -110 130 -224 147 -253 17 -29 31 -56 31 -59 0 -4
6 -14 14 -22 8 -9 26 -38 41 -66 14 -27 36 -66 47 -85 39 -67 401 -695 420
-730 11 -19 24 -39 28 -45 4 -5 21 -35 37 -65 17 -30 80 -140 140 -245 151
-259 330 -570 361 -625 14 -25 36 -62 49 -83 13 -21 28 -48 34 -60 5 -12 18
-35 28 -52 10 -16 78 -133 151 -260 307 -532 584 -1012 600 -1040 9 -16 68
-118 130 -225 62 -107 121 -211 132 -230 11 -19 38 -66 60 -103 22 -38 38 -70
36 -71 -6 -5 -523 -309 -568 -334 -25 -14 -56 -33 -70 -43 -14 -9 -95 -57
-180 -107 -161 -93 -524 -305 -550 -322 -13 -8 -162 -95 -239 -140 -14 -8 -50
-30 -79 -48 -29 -17 -54 -32 -56 -32 -2 0 -79 -45 -172 -101 -93 -56 -187
-111 -209 -124 -22 -12 -98 -57 -170 -100 -71 -42 -148 -87 -170 -100 -245
-138 -669 -396 -701 -427 -38 -37 -63 -77 -92 -150 -17 -41 -10 -176 11 -217
9 -19 17 -40 17 -47 0 -28 112 -122 220 -184 147 -84 117 -67 685 -398 270
-157 526 -307 570 -332 44 -26 123 -72 175 -102 52 -30 232 -135 400 -233 168
-98 319 -186 335 -195 42 -24 258 -150 395 -230 63 -37 255 -148 425 -248 171
-99 326 -189 345 -201 19 -11 49 -28 65 -37 17 -9 136 -79 266 -155 130 -76
253 -147 273 -159 79 -44 108 -61 296 -172 187 -110 668 -390 734 -427 17 -10
180 -105 361 -211 182 -106 350 -204 375 -218 25 -14 79 -45 120 -70 41 -25
91 -54 110 -64 82 -47 664 -386 760 -443 125 -75 188 -96 270 -90 76 6 120 24
259 107 62 37 116 68 118 68 3 0 17 8 31 19 15 10 47 29 72 43 25 14 263 153
530 308 267 155 499 290 515 300 17 9 54 31 83 49 29 17 57 31 62 31 6 0 10 5
10 10 0 6 4 10 9 10 5 0 55 27 111 60 56 33 103 60 105 60 2 0 43 24 92 53 48
30 225 134 393 231 168 98 312 182 320 187 38 22 290 168 330 191 25 14 218
126 430 250 212 124 538 314 725 423 187 109 354 206 370 216 17 10 37 22 45
26 8 4 101 57 205 118 105 61 210 123 235 137 25 14 286 166 580 338 294 172
553 322 575 335 22 12 92 53 155 90 63 37 131 77 150 88 19 10 73 42 120 70
47 27 99 58 115 67 176 100 221 127 276 163 102 68 159 173 159 291 0 88 -11
114 -125 308 -5 9 -32 56 -60 104 -68 119 -98 172 -179 311 -37 65 -80 138
-94 163 -14 25 -52 89 -84 143 -32 55 -58 101 -58 103 0 2 -22 41 -49 86 -27
46 -58 99 -69 118 -10 19 -43 76 -72 125 -29 50 -62 108 -75 130 -12 22 -90
157 -172 300 -83 143 -160 276 -170 295 -30 52 -192 333 -202 350 -5 8 -53 92
-107 185 -54 94 -178 309 -276 478 -98 170 -190 329 -204 355 -14 26 -30 52
-34 57 -4 6 -18 30 -32 55 -14 25 -109 191 -213 370 -103 179 -201 350 -218
380 -16 30 -33 60 -37 65 -4 6 -17 26 -27 45 -74 131 -409 710 -424 732 -10
15 -19 30 -19 32 0 3 -79 142 -175 307 -170 295 -174 302 -152 314 12 6 76 43
142 82 66 39 134 79 152 89 18 11 117 69 220 130 195 115 833 491 938 552 33
19 121 71 195 115 74 44 149 88 165 97 34 19 109 64 585 345 184 109 355 209
380 223 24 14 83 48 130 77 47 28 90 54 96 56 5 2 48 27 94 54 105 62 164 120
198 193 23 48 27 70 27 142 -1 93 -25 163 -79 227 -24 29 -109 93 -122 93 -3
0 -36 18 -72 39 -37 21 -89 51 -117 66 -27 16 -104 58 -170 95 -66 37 -147 82
-180 100 -33 18 -109 61 -170 95 -60 34 -139 78 -175 97 -88 48 -478 265 -515
288 -16 9 -61 34 -100 55 -38 21 -119 66 -180 100 -60 34 -135 75 -165 92 -30
17 -75 41 -100 55 -25 14 -142 80 -260 145 -118 66 -235 132 -260 146 -25 13
-126 70 -225 124 -146 81 -461 257 -745 416 -146 81 -1013 564 -1055 587 -44
24 -1014 565 -1135 633 -42 23 -251 139 -365 202 -27 15 -76 43 -108 61 -32
19 -60 34 -62 34 -3 0 -39 20 -81 45 -41 25 -78 45 -81 45 -3 0 -43 23 -90 50
-47 28 -86 50 -87 50 -2 0 -82 44 -179 99 -97 54 -190 103 -207 109 -56 20
-142 23 -200 7z m-259 -4267 c0 -1822 0 -3334 -1 -3360 l0 -47 -111 64 c-60
36 -131 77 -157 91 -26 14 -51 30 -57 34 -5 4 -37 22 -70 40 -33 18 -73 42
-90 52 -16 10 -37 21 -45 25 -8 4 -58 33 -112 64 -53 31 -120 70 -150 87 -29
16 -125 71 -213 122 -88 51 -176 102 -195 113 -19 11 -134 77 -255 147 -224
129 -472 272 -535 308 -19 11 -91 52 -160 92 -151 87 -180 105 -222 128 -61
35 -751 432 -1128 650 -91 52 -185 106 -210 120 -25 14 -78 45 -118 69 -41 24
-76 43 -79 43 -2 0 -24 14 -48 30 -24 17 -46 30 -49 30 -2 0 -87 48 -188 106
-101 58 -201 116 -223 129 -22 12 -128 73 -235 135 -107 62 -214 123 -238 137
-23 13 -93 53 -154 89 -61 35 -112 64 -114 64 -3 0 -41 23 -85 50 -44 28 -84
50 -87 50 -4 0 -23 11 -42 23 -19 13 -60 38 -90 55 -30 16 -122 69 -203 115
l-148 86 118 69 c116 68 910 530 1453 845 151 88 286 167 300 176 14 9 34 21
46 27 24 13 1020 593 1219 710 77 45 156 91 175 101 19 11 145 84 280 163 228
132 346 201 575 335 50 29 106 62 125 73 19 11 70 40 113 66 43 25 82 46 87
46 6 0 10 5 10 10 0 6 4 10 9 10 9 0 103 54 326 185 359 212 970 564 973 561
2 -2 3 -1495 3 -3318z m1464 2912 c6 -4 37 -22 70 -40 33 -18 114 -63 180
-100 66 -37 145 -80 175 -97 30 -16 91 -50 135 -75 44 -25 105 -59 135 -76 30
-16 87 -47 125 -69 39 -22 97 -55 130 -73 33 -18 94 -52 135 -75 41 -23 102
-57 135 -75 33 -18 76 -42 95 -53 19 -11 60 -33 90 -50 30 -16 81 -45 113 -63
32 -19 59 -34 61 -34 2 0 42 -23 90 -50 48 -28 116 -66 149 -84 86 -47 299
-165 317 -176 8 -6 191 -107 405 -226 339 -188 859 -478 965 -537 19 -11 58
-32 85 -47 28 -15 145 -80 260 -145 219 -122 226 -126 445 -248 74 -41 230
-127 345 -192 116 -64 239 -133 275 -153 36 -20 78 -43 94 -53 l28 -17 -23
-15 c-13 -8 -141 -84 -284 -167 -143 -84 -345 -203 -450 -265 -204 -120 -460
-271 -512 -301 -17 -11 -89 -53 -159 -94 -70 -41 -146 -86 -168 -99 -23 -13
-123 -72 -224 -132 -101 -60 -185 -109 -188 -109 -3 0 -17 -9 -32 -19 -47 -33
-593 -351 -603 -351 -5 0 -18 17 -29 38 -11 20 -30 53 -41 72 -21 35 -467 808
-736 1275 -79 138 -148 257 -153 265 -5 8 -35 60 -66 115 -32 55 -138 240
-237 410 -99 171 -191 330 -205 355 -14 25 -48 86 -77 135 -29 50 -62 106 -73
125 -11 19 -43 75 -71 123 -28 49 -51 93 -51 98 0 5 -4 9 -10 9 -5 0 -10 4
-10 9 0 5 -97 177 -216 382 -119 206 -226 392 -239 414 -38 69 -61 108 -94
163 -17 29 -31 57 -31 62 0 6 -4 10 -10 10 -5 0 -10 5 -10 10 0 6 -48 92 -106
193 -59 100 -109 186 -112 191 -4 7 155 -75 183 -94z m-591 -586 c95 -165 177
-308 184 -319 30 -53 157 -274 172 -300 9 -16 51 -88 92 -160 42 -71 85 -146
96 -165 33 -58 374 -649 617 -1070 125 -217 237 -411 248 -430 10 -19 52 -91
92 -160 89 -153 295 -511 324 -562 39 -70 58 -103 91 -158 18 -30 44 -75 58
-100 41 -74 207 -361 239 -416 17 -27 43 -72 58 -100 15 -27 46 -80 68 -118
l41 -69 -21 -17 c-18 -14 -131 -82 -471 -281 -15 -9 -106 -63 -202 -119 -96
-57 -209 -123 -250 -147 -41 -24 -82 -48 -90 -53 -16 -10 -542 -320 -595 -350
-59 -34 -190 -111 -205 -120 -31 -19 -416 -245 -435 -256 -11 -6 -78 -46 -149
-88 -71 -42 -131 -74 -134 -71 -3 3 -6 1339 -6 2969 -1 1631 0 2963 2 2961 2
-2 81 -137 176 -301z m-6299 -3409 c64 -38 169 -99 267 -154 21 -11 124 -71
230 -132 106 -61 209 -121 228 -132 19 -10 123 -70 230 -132 107 -62 211 -122
230 -132 19 -11 197 -114 395 -228 198 -114 380 -219 405 -233 25 -14 61 -35
80 -47 19 -12 42 -24 50 -28 8 -4 22 -11 30 -17 24 -16 362 -210 366 -210 2 0
32 -17 66 -38 35 -21 83 -50 108 -64 25 -14 149 -85 275 -158 127 -73 246
-142 265 -152 19 -11 141 -81 270 -156 129 -74 321 -185 425 -245 232 -133
425 -245 445 -257 8 -5 119 -69 245 -141 127 -72 248 -142 270 -155 22 -13 59
-34 83 -46 34 -17 40 -24 30 -34 -14 -13 -328 -199 -1270 -752 -46 -27 -157
-92 -247 -145 -90 -54 -168 -97 -172 -97 -5 0 -9 -3 -9 -7 0 -5 -10 -13 -23
-19 -23 -12 -155 -89 -562 -328 -137 -81 -254 -148 -258 -149 -7 -2 -261 426
-369 623 -17 30 -34 60 -38 65 -6 8 -127 217 -220 380 -9 17 -85 147 -167 290
-83 143 -159 275 -169 294 -10 18 -23 41 -29 50 -5 9 -42 72 -82 141 -39 69
-79 139 -90 157 -10 17 -50 87 -89 155 -40 68 -131 227 -204 353 -277 480
-367 636 -488 845 -68 118 -135 235 -149 260 -29 51 -120 207 -152 260 -11 19
-24 42 -28 50 -4 8 -51 91 -105 183 -54 93 -98 171 -98 174 0 4 -6 14 -14 22
-7 9 -28 43 -46 76 -17 33 -37 66 -43 74 -14 17 28 -4 128 -64z m9400 -1970
c158 -275 297 -516 308 -535 11 -19 33 -57 49 -85 16 -27 33 -57 38 -65 5 -8
32 -53 58 -100 27 -47 100 -173 162 -280 62 -107 124 -215 138 -240 14 -25
176 -306 360 -625 338 -585 468 -811 504 -875 23 -40 114 -197 127 -220 5 -8
82 -141 170 -295 89 -154 206 -356 260 -450 54 -93 97 -172 95 -174 -1 -2 -52
25 -111 59 -59 34 -128 74 -153 88 -25 14 -173 99 -330 190 -157 91 -303 175
-325 187 -22 13 -143 83 -270 155 -248 143 -681 392 -730 420 -104 60 -563
325 -589 341 -17 10 -37 22 -44 25 -8 4 -80 45 -160 92 -81 46 -163 94 -182
104 -19 11 -64 37 -100 58 -36 21 -81 47 -100 58 -19 11 -91 52 -158 91 -68
39 -128 71 -133 71 -5 0 -9 5 -9 10 0 6 -4 10 -9 10 -6 0 -60 29 -121 65 -61
36 -130 76 -153 89 -42 23 -398 228 -772 444 -110 63 -285 165 -390 225 -104
60 -212 123 -240 138 -27 16 -83 48 -122 70 -40 22 -73 42 -73 44 0 2 198 122
270 163 19 10 143 83 274 161 131 77 240 141 242 141 2 0 28 15 57 34 29 19
71 44 93 56 37 21 583 342 1129 665 138 81 268 158 290 170 22 13 94 55 159
94 l120 70 41 -72 c23 -40 171 -297 330 -572z m-3973 -4530 c0 -1675 -2 -3049
-6 -3052 -3 -3 -9 3 -13 13 -4 10 -29 57 -56 104 -27 47 -57 99 -67 115 -9 17
-48 84 -87 150 -38 66 -72 127 -76 135 -4 8 -16 29 -26 45 -10 17 -145 251
-300 520 -156 270 -297 515 -316 545 -18 30 -43 73 -55 95 -12 22 -167 290
-343 595 -176 305 -330 573 -343 596 -12 22 -34 59 -48 82 -14 23 -26 44 -26
47 0 3 -11 22 -24 43 -24 39 -155 263 -202 347 -15 28 -83 147 -152 265 -69
118 -152 262 -185 320 -33 58 -67 119 -77 135 -9 17 -65 112 -124 213 -58 101
-104 187 -101 192 3 5 24 19 48 32 23 14 134 79 247 145 336 197 603 355 635
374 17 10 41 24 55 32 14 8 75 43 135 79 261 154 582 343 605 355 14 8 221
130 460 272 239 141 437 256 439 255 2 -2 4 -1374 3 -3049z m1288 2632 c201
-115 421 -242 490 -281 69 -38 127 -74 128 -78 2 -4 8 -8 12 -8 5 0 102 -54
216 -120 114 -66 208 -120 210 -120 2 0 32 -17 66 -38 35 -21 88 -52 118 -69
30 -17 201 -115 380 -218 603 -348 715 -412 755 -435 22 -12 45 -26 50 -30 6
-4 35 -21 65 -37 30 -17 96 -54 145 -83 50 -29 108 -63 130 -75 22 -13 227
-131 455 -262 228 -132 435 -251 460 -265 25 -14 191 -110 370 -213 179 -103
341 -196 360 -207 19 -11 64 -37 100 -58 36 -21 81 -47 100 -58 55 -31 542
-312 573 -330 15 -9 27 -20 27 -23 0 -4 -12 -14 -27 -22 -16 -7 -203 -116
-416 -240 -214 -125 -393 -227 -398 -227 -5 0 -9 -4 -9 -9 0 -5 -12 -14 -27
-20 -16 -6 -55 -27 -88 -47 -33 -20 -78 -46 -100 -58 -22 -13 -74 -43 -115
-68 -101 -60 -258 -152 -295 -172 -16 -9 -37 -21 -45 -26 -32 -21 -272 -160
-276 -160 -3 0 -33 -17 -67 -39 -61 -38 -339 -200 -427 -249 -25 -14 -88 -51
-140 -82 -52 -32 -129 -76 -170 -100 -88 -50 -56 -31 -430 -250 -162 -95 -315
-184 -340 -198 -25 -14 -216 -125 -425 -247 -209 -122 -393 -230 -410 -239
-16 -9 -37 -21 -45 -26 -8 -5 -49 -29 -90 -53 -41 -24 -160 -93 -265 -154
-104 -61 -206 -120 -225 -131 -75 -43 -936 -544 -955 -556 -20 -13 -20 -11
-18 3338 0 1843 2 3359 2 3368 1 13 26 2 114 -49 61 -36 276 -160 477 -276z
m-4420 -1654 c52 -92 108 -190 123 -218 16 -27 46 -79 67 -115 33 -56 428
-740 788 -1365 187 -325 451 -783 510 -885 30 -52 80 -138 110 -190 30 -52 62
-108 72 -125 9 -16 97 -169 195 -340 97 -170 186 -322 196 -337 11 -15 19 -29
19 -32 0 -2 20 -39 45 -80 25 -42 45 -79 45 -82 0 -3 14 -25 30 -49 17 -24 30
-46 30 -48 0 -3 141 -250 267 -466 22 -37 23 -43 8 -37 -15 5 -125 69 -285
165 -19 11 -42 24 -50 28 -8 4 -55 31 -103 60 -48 29 -89 53 -91 53 -2 0 -77
43 -167 96 -90 53 -184 108 -209 122 -25 14 -62 36 -82 49 -21 12 -39 23 -42
23 -2 0 -44 24 -93 54 -49 29 -109 64 -133 78 -49 28 -771 448 -1105 643 -115
68 -498 291 -850 495 -352 205 -653 381 -670 391 -16 11 -36 22 -44 26 -8 3
-167 96 -354 205 -187 109 -341 198 -342 198 -1 0 -45 25 -96 56 -92 55 -119
72 -196 115 -160 90 -274 162 -267 169 18 15 403 240 412 240 6 0 12 4 14 8 3
7 161 103 296 179 24 13 165 96 315 185 150 88 304 178 342 201 39 22 102 59
140 83 93 56 909 535 960 564 22 12 49 29 60 36 11 8 24 14 30 14 5 0 53 -76
105 -167z"/>
</g>
</svg>
